ffmpeg started on 2016-11-27 at 14:41:13
Report written to "Output/NVENCh264/results/ffmpeg/sintelllhq13000k.log"
Command line:
Tools/ffmpeg/ffmpeg -benchmark -y -i Input/y4m/sintel.y4m -c:v h264_nvenc -preset llhq -b:v 13000k -an Output/NVENCh264/encoded/sintelllhq13000k.mkv
ffmpeg version N-82227-gdb23fde Copyright (c) 2000-2016 the FFmpeg developers
  built with gcc 5.4.0 (Ubuntu 5.4.0-6ubuntu1~16.04.2) 20160609
  configuration: --prefix=/home/jaroslav/ffmpeg_build --pkg-config-flags=--static --extra-cflags=-I/home/jaroslav/ffmpeg_build/include --extra-ldflags=-L/home/jaroslav/ffmpeg_build/lib --bindir=/home/jaroslav/bin --enable-gpl --enable-libass --enable-libfdk-aac --enable-libfreetype --enable-libmp3lame --enable-libopus --enable-libtheora --enable-libvorbis --enable-libvpx --enable-libx264 --enable-libx265 --enable-nvenc --enable-libmfx --enable-libxvid --enable-libgsm --enable-libopencore-amrnb --enable-version3 --enable-nonfree
  libavutil      55. 35.100 / 55. 35.100
  libavcodec     57. 66.101 / 57. 66.101
  libavformat    57. 57.100 / 57. 57.100
  libavdevice    57.  2.100 / 57.  2.100
  libavfilter     6. 66.100 /  6. 66.100
  libswscale      4.  3.100 /  4.  3.100
  libswresample   2.  4.100 /  2.  4.100
  libpostproc    54.  2.100 / 54.  2.100
Input #0, yuv4mpegpipe, from 'Input/y4m/sintel.y4m':
  Duration: 00:00:20.83, start: 0.000000, bitrate: 2057307 kb/s
    Stream #0:0: Video: rawvideo (I420 / 0x30323449), yuv420p(progressive), 4096x1744, SAR 1:1 DAR 256:109, 24 fps, 24 tbr, 24 tbn, 24 tbc
[h264_nvenc @ 0x369a1c0] The variable bitrate rate-control requires the 'qmin' and/or 'qmax' option set.
Output #0, matroska, to 'Output/NVENCh264/encoded/sintelllhq13000k.mkv':
  Metadata:
    encoder         : Lavf57.57.100
    Stream #0:0: Video: h264 (h264_nvenc) (Main) (H264 / 0x34363248), yuv420p, 4096x1744 [SAR 1:1 DAR 256:109], q=-1--1, 13000 kb/s, 24 fps, 1k tbn, 24 tbc
    Metadata:
      encoder         : Lavc57.66.101 h264_nvenc
    Side data:
      cpb: bitrate max/min/avg: 0/0/13000000 buffer size: 26000000 vbv_delay: -1
Stream mapping:
  Stream #0:0 -> #0:0 (rawvideo (native) -> h264 (h264_nvenc))
Press [q] to stop, [?] for help
frame=    3 fps=1.7 q=0.0 size=       0kB time=00:00:00.00 bitrate=N/A speed=   0x    frame=   17 fps=7.4 q=0.0 size=       0kB time=00:00:00.00 bitrate=N/A speed=   0x    frame=   38 fps= 14 q=32.0 size=       1kB time=00:00:00.29 bitrate=  20.4kbits/s speed=0.104x    frame=   59 fps= 18 q=32.0 size=       1kB time=00:00:01.16 bitrate=   5.1kbits/s speed=0.352x    frame=   80 fps= 21 q=29.0 size=       1kB time=00:00:02.04 bitrate=   2.9kbits/s speed=0.534x    frame=  101 fps= 23 q=28.0 size=       1kB time=00:00:02.91 bitrate=   2.1kbits/s speed=0.672x    frame=  119 fps= 25 q=25.0 size=    5168kB time=00:00:03.66 bitrate=11541.8kbits/s speed=0.757x    frame=  140 fps= 26 q=26.0 size=    5168kB time=00:00:04.54 bitrate=9318.8kbits/s speed=0.848x    frame=  161 fps= 27 q=29.0 size=    7612kB time=00:00:05.41 bitrate=11509.8kbits/s speed=0.922x    frame=  182 fps= 28 q=29.0 size=    7612kB time=00:00:06.29 bitrate=9909.4kbits/s speed=0.985x    frame=  186 fps= 20 q=27.0 size=    7612kB time=00:00:06.45 bitrate=9654.7kbits/s speed=0.71x    frame=  187 fps= 16 q=28.0 size=    7612kB time=00:00:06.50 bitrate=9592.3kbits/s speed=0.565x    frame=  208 fps= 17 q=26.0 size=    7612kB time=00:00:07.37 bitrate=8454.4kbits/s speed=0.614x    frame=  228 fps= 18 q=25.0 size=   12777kB time=00:00:08.20 bitrate=12750.7kbits/s speed=0.656x    frame=  249 fps= 19 q=29.0 size=   12777kB time=00:00:09.08 bitrate=11522.5kbits/s speed=0.697x    frame=  270 fps= 20 q=27.0 size=   12777kB time=00:00:09.95 bitrate=10510.1kbits/s speed=0.736x    frame=  287 fps= 20 q=25.0 size=   12777kB time=00:00:10.66 bitrate=9811.6kbits/s speed=0.752x    frame=  307 fps= 21 q=25.0 size=   17478kB time=00:00:11.50 bitrate=12449.2kbits/s speed=0.783x    frame=  328 fps= 22 q=24.0 size=   17478kB time=00:00:12.37 bitrate=11569.0kbits/s speed=0.814x    frame=  348 fps= 22 q=24.0 size=   17478kB time=00:00:13.20 bitrate=10839.4kbits/s speed=0.84x    frame=  367 fps= 22 q=23.0 size=   17478kB time=00:00:14.00 bitrate=10226.3kbits/s speed=0.853x    frame=  387 fps= 23 q=22.0 size=   22612kB time=00:00:14.83 bitrate=12487.1kbits/s speed=0.877x    frame=  408 fps= 23 q=23.0 size=   22612kB time=00:00:15.70 bitrate=11791.5kbits/s speed=0.902x    frame=  429 fps= 24 q=26.0 size=   22612kB time=00:00:16.58 bitrate=11169.4kbits/s speed=0.925x    frame=  450 fps= 24 q=26.0 size=   27729kB time=00:00:17.45 bitrate=13011.0kbits/s speed=0.946x    frame=  471 fps= 25 q=27.0 size=   27729kB time=00:00:18.33 bitrate=12390.0kbits/s speed=0.967x    frame=  492 fps= 25 q=25.0 size=   27729kB time=00:00:19.20 bitrate=11825.6kbits/s speed=0.986x    frame=  500 fps= 25 q=27.0 Lsize=   33247kB time=00:00:20.79 bitrate=13098.6kbits/s speed=1.04x    
video:33242kB audio:0kB subtitle:0kB other streams:0kB global headers:0kB muxing overhead: 0.014703%
bench: utime=0.932s
bench: maxrss=1197160kB
